<?xml version="1.0" encoding="utf-8" standalone="no"?>
<!DOCTYPE svg PUBLIC "-//W3C//DTD SVG 1.1//EN"
  "http://www.w3.org/Graphics/SVG/1.1/DTD/svg11.dtd">
<svg xmlns:xlink="http://www.w3.org/1999/xlink" width="126pt" height="125.28pt" viewBox="0 0 126 125.28" xmlns="http://www.w3.org/2000/svg" version="1.1">
 <metadata>
  <rdf:RDF xmlns:dc="http://purl.org/dc/elements/1.1/" xmlns:cc="http://creativecommons.org/ns#" xmlns:rdf="http://www.w3.org/1999/02/22-rdf-syntax-ns#">
   <cc:Work>
    <dc:type rdf:resource="http://purl.org/dc/dcmitype/StillImage"/>
    <dc:date>2025-05-05T16:45:24.290591</dc:date>
    <dc:format>image/svg+xml</dc:format>
    <dc:creator>
     <cc:Agent>
      <dc:title>Matplotlib v3.10.1, https://matplotlib.org/</dc:title>
     </cc:Agent>
    </dc:creator>
   </cc:Work>
  </rdf:RDF>
 </metadata>
 <defs>
  <style type="text/css">*{stroke-linejoin: round; stroke-linecap: butt}</style>
 </defs>
 <g id="figure_1">
  <g id="patch_1">
   <path d="M 0 125.28 
L 126 125.28 
L 126 0 
L 0 0 
z
" style="fill: #ffffff"/>
  </g>
  <g id="axes_1">
   <g id="text_1">
    <!-- φ -->
    <g transform="translate(28.210938 89.593125) scale(1 -1)">
     <defs>
      <path id="Georgia-3c6" d="M 3769 2800 
Q 3975 2613 4104 2333 
Q 4234 2053 4234 1641 
Q 4234 1231 4086 907 
Q 3938 584 3694 372 
Q 3453 156 3142 37 
Q 2831 -81 2513 -91 
L 2513 -1388 
L 1931 -1388 
L 1931 -91 
Q 1147 -56 683 386 
Q 219 828 219 1528 
Q 219 2150 548 2569 
Q 878 2988 1541 3147 
L 1588 2894 
Q 1234 2769 1053 2439 
Q 872 2109 872 1528 
Q 872 916 1158 539 
Q 1444 163 1931 150 
L 1931 2416 
Q 1931 2616 2012 2759 
Q 2094 2903 2228 2997 
Q 2347 3081 2525 3123 
Q 2703 3166 2853 3166 
Q 3091 3166 3333 3073 
Q 3575 2981 3769 2800 
z
M 3581 1666 
Q 3581 2253 3379 2589 
Q 3178 2925 2872 2925 
Q 2722 2925 2617 2826 
Q 2513 2728 2513 2559 
L 2513 150 
Q 3044 188 3312 600 
Q 3581 1013 3581 1666 
z
" transform="scale(0.015625)"/>
     </defs>
     <use xlink:href="#Georgia-3c6"/>
    </g>
   </g>
  </g>
 </g>
</svg>
